<svg width="36" height="36" viewBox="0 0 36 36" fill="none" xmlns="http://www.w3.org/2000/svg">
<path d="M33.0264 16.4953C32.511 15.8112 30.5964 15.3401 29.7864 14.1089C28.9764 12.8777 28.3134 10.2115 26.2518 9.18703C24.1903 8.16258 20.2499 7.875 17.9999 7.875C15.7499 7.875 11.8124 8.15625 9.74807 9.18492C7.6837 10.2136 7.02346 12.8777 6.21346 14.1068C5.40346 15.3359 3.48885 15.8112 2.97346 16.4953C2.45807 17.1795 2.09526 21.5044 2.31604 23.625C2.53682 25.7456 2.94885 27 2.94885 27H8.99573C9.98573 27 10.3078 26.628 12.3328 26.4375C14.5546 26.2266 16.7343 26.1562 17.9999 26.1562C19.2656 26.1562 21.5156 26.2266 23.736 26.4375C25.761 26.6295 26.0936 27 27.0731 27H33.0496C33.0496 27 33.4617 25.7456 33.6825 23.625C33.9032 21.5044 33.539 17.1795 33.0264 16.4953ZM28.1249 27H32.0624V28.125H28.1249V27ZM3.93745 27H7.87495V28.125H3.93745V27Z" stroke="#7C1DCF" stroke-linecap="round" stroke-linejoin="round"/>
<path d="M25.6269 21.7378C25.2113 21.2576 23.8571 20.8568 22.0641 20.5882C20.2712 20.3196 19.6172 20.25 18.0141 20.25C16.411 20.25 15.6819 20.3653 13.9634 20.5882C12.245 20.8111 10.9547 21.2077 10.4014 21.7378C9.57099 22.5422 10.7874 23.445 11.7422 23.5547C12.6676 23.6602 14.5175 23.6215 18.0219 23.6215C21.5262 23.6215 23.3762 23.6602 24.3015 23.5547C25.2549 23.4387 26.3841 22.5984 25.6269 21.7378ZM30.3448 17.0894C30.3409 17.0336 30.3164 16.9812 30.2762 16.9423C30.236 16.9033 30.1828 16.8806 30.1269 16.8785C29.2965 16.849 28.4534 16.908 26.9579 17.3489C26.1949 17.5717 25.4784 17.9304 24.8429 18.4078C24.6826 18.533 24.7395 18.8712 24.9406 18.907C26.1733 19.0516 27.4134 19.1244 28.6545 19.125C29.3991 19.125 30.1676 18.9141 30.3104 18.2503C30.3831 17.8676 30.3948 17.4758 30.3448 17.0894ZM5.65529 17.0894C5.65924 17.0336 5.68367 16.9812 5.7239 16.9423C5.76413 16.9033 5.81732 16.8806 5.87326 16.8785C6.70365 16.849 7.5467 16.908 9.04225 17.3489C9.80525 17.5717 10.5217 17.9304 11.1572 18.4078C11.3176 18.533 11.2606 18.8712 11.0595 18.907C9.82681 19.0516 8.58675 19.1244 7.3456 19.125C6.601 19.125 5.83248 18.9141 5.68975 18.2503C5.61697 17.8676 5.60535 17.4758 5.65529 17.0894Z" fill="#7C1DCF"/>
<path d="M30.375 13.5H31.5M4.5 13.5H5.625M5.48437 14.8359C5.48437 14.8359 8.74336 13.9922 18 13.9922C27.2566 13.9922 30.5156 14.8359 30.5156 14.8359" stroke="#7C1DCF" stroke-linecap="round" stroke-linejoin="round"/>
</svg>
