<svg width="14" height="14" viewBox="0 0 14 14" fill="none" xmlns="http://www.w3.org/2000/svg">
<g clip-path="url(#clip0_136_799)">
<path d="M13.0031 5.56569C12.5736 5.1362 11.9428 5.05898 11.4439 5.29783L8.10521 1.9591C8.34764 1.45013 8.25875 0.821358 7.83792 0.400538C7.30396 -0.133513 6.435 -0.133513 5.90098 0.400538L3.964 2.33749C3.43 2.87148 3.43 3.74041 3.964 4.27441C4.38375 4.69422 5.01154 4.78514 5.52257 4.54169L6.2238 5.24293L0.407453 11.0593C-0.127801 11.5945 -0.127883 12.4609 0.407453 12.9962C0.942707 13.5315 1.80907 13.5316 2.3444 12.9962L8.16074 7.17987L8.86189 7.88099C8.61941 8.39 8.7083 9.01874 9.12915 9.43959C9.38782 9.69826 9.73178 9.84078 10.0976 9.84078C10.4635 9.84078 10.8074 9.69831 11.0661 9.43959L13.003 7.50264C13.5371 6.96862 13.5371 6.09974 13.0031 5.56569ZM5.25534 3.62877C5.07733 3.80675 4.78768 3.80669 4.60967 3.62877C4.43169 3.45073 4.43169 3.16114 4.60967 2.98313L6.54662 1.04618C6.7246 0.868198 7.01419 0.868116 7.19226 1.04618C7.37027 1.22419 7.37026 1.51381 7.19228 1.69182L5.25534 3.62877ZM1.69876 12.3505C1.52032 12.5289 1.23157 12.5289 1.05312 12.3505C0.874703 12.1721 0.874675 11.8833 1.05312 11.7049L6.86946 5.88851L7.5151 6.53418L1.69876 12.3505ZM6.2238 3.95159L6.54659 3.62874L7.51508 2.66025L10.7433 5.88854L9.45205 7.17985L6.2238 3.95159ZM12.3575 6.85703L10.4205 8.79398C10.2421 8.97242 9.95332 8.97242 9.77487 8.79398C9.59687 8.61597 9.59687 8.32631 9.77487 8.14831L11.7119 6.21136C11.8902 6.03291 12.179 6.03294 12.3575 6.21136C12.5359 6.38978 12.5359 6.67855 12.3575 6.85703Z" fill="white"/>
<path d="M12.6244 11.2607H8.97204C8.21683 11.2607 7.60242 11.8752 7.60242 12.6304V13.5435C7.60242 13.7956 7.80684 14 8.05895 14H13.5375C13.7896 14 13.994 13.7956 13.994 13.5435V12.6304C13.994 11.8752 13.3796 11.2607 12.6244 11.2607ZM13.0809 13.0869H8.51551V12.6304C8.51551 12.3786 8.72031 12.1738 8.97204 12.1738H12.6244C12.8761 12.1738 13.0809 12.3786 13.0809 12.6304V13.0869H13.0809Z" fill="white"/>
</g>
<defs>
<clipPath id="clip0_136_799">
<rect width="14" height="14" fill="white"/>
</clipPath>
</defs>
</svg>
