<svg width="16" height="17" viewBox="0 0 16 17" fill="none" xmlns="http://www.w3.org/2000/svg">
<path d="M14.6785 7.91566C14.4494 7.6116 13.5985 7.40222 13.2385 6.85504C12.8785 6.30785 12.5838 5.12285 11.6675 4.66754C10.7513 4.21222 9.00004 4.08441 8.00004 4.08441C7.00004 4.08441 5.25004 4.20941 4.33254 4.6666C3.41504 5.12379 3.12161 6.30785 2.76161 6.8541C2.40161 7.40035 1.55067 7.6116 1.32161 7.91566C1.09254 8.21972 0.931294 10.1419 1.02942 11.0844C1.12754 12.0269 1.31067 12.5844 1.31067 12.5844H3.99817C4.43817 12.5844 4.58129 12.4191 5.48129 12.3344C6.46879 12.2407 7.43754 12.2094 8.00004 12.2094C8.56254 12.2094 9.56254 12.2407 10.5494 12.3344C11.4494 12.4197 11.5972 12.5844 12.0325 12.5844H14.6888C14.6888 12.5844 14.8719 12.0269 14.97 11.0844C15.0682 10.1419 14.9063 8.21972 14.6785 7.91566ZM12.5 12.5844H14.25V13.0844H12.5V12.5844ZM1.75004 12.5844H3.50004V13.0844H1.75004V12.5844Z" stroke="white" stroke-linecap="round" stroke-linejoin="round"/>
<path d="M11.3896 10.2457C11.205 10.0322 10.6031 9.8541 9.80621 9.73472C9.00933 9.61535 8.71871 9.58441 8.00621 9.58441C7.29371 9.58441 6.96965 9.63566 6.2059 9.73472C5.44215 9.83378 4.86871 10.01 4.62277 10.2457C4.25371 10.6032 4.79433 11.0044 5.21871 11.0532C5.62996 11.1 6.45215 11.0828 8.00965 11.0828C9.56715 11.0828 10.3893 11.1 10.8006 11.0532C11.2243 11.0016 11.7262 10.6282 11.3896 10.2457ZM13.4865 8.17972C13.4848 8.1549 13.4739 8.13161 13.456 8.1143C13.4381 8.097 13.4145 8.08691 13.3896 8.08597C13.0206 8.07285 12.6459 8.0991 11.9812 8.29503C11.6421 8.39404 11.3237 8.55347 11.0412 8.76566C10.97 8.82128 10.9953 8.9716 11.0846 8.98753C11.6325 9.05179 12.1836 9.08414 12.7353 9.08441C13.0662 9.08441 13.4078 8.99066 13.4712 8.69566C13.5036 8.52557 13.5087 8.35143 13.4865 8.17972ZM2.5134 8.17972C2.51515 8.1549 2.52601 8.13161 2.54389 8.1143C2.56177 8.097 2.58541 8.08691 2.61027 8.08597C2.97933 8.07285 3.35402 8.0991 4.01871 8.29503C4.35782 8.39404 4.67627 8.55347 4.95871 8.76566C5.02996 8.82128 5.00465 8.9716 4.91527 8.98753C4.3674 9.05179 3.81627 9.08414 3.26465 9.08441C2.93371 9.08441 2.59215 8.99066 2.52871 8.69566C2.49637 8.52557 2.4912 8.35143 2.5134 8.17972Z" fill="white"/>
<path d="M13.5 6.58441H14M2 6.58441H2.5M2.4375 7.17816C2.4375 7.17816 3.88594 6.80316 8 6.80316C12.1141 6.80316 13.5625 7.17816 13.5625 7.17816" stroke="white" stroke-linecap="round" stroke-linejoin="round"/>
</svg>
