<svg width="16" height="16" viewBox="0 0 16 16" fill="none" xmlns="http://www.w3.org/2000/svg">
<path d="M8.09074 1.49999C4.43512 1.45062 1.45074 4.43499 1.50012 8.09062C1.54887 11.5966 4.40355 14.4512 7.90949 14.5C11.5657 14.55 14.5495 11.5656 14.4995 7.90999C14.4514 4.40343 11.5967 1.54874 8.09074 1.49999ZM12.0414 11.7266C12.0289 11.74 12.0137 11.7506 11.9967 11.7575C11.9797 11.7644 11.9614 11.7675 11.9431 11.7665C11.9248 11.7656 11.9069 11.7606 11.8907 11.752C11.8745 11.7433 11.8605 11.7312 11.8495 11.7166C11.57 11.3509 11.2277 11.0378 10.8386 10.7919C10.0429 10.2812 9.0348 9.99999 8.00012 9.99999C6.96543 9.99999 5.9573 10.2812 5.16168 10.7919C4.77258 11.0376 4.43027 11.3506 4.15074 11.7162C4.13976 11.7309 4.12568 11.743 4.10951 11.7516C4.09333 11.7603 4.07546 11.7653 4.05715 11.7662C4.03884 11.7672 4.02054 11.7641 4.00356 11.7572C3.98657 11.7503 3.97131 11.7397 3.95887 11.7262C3.04189 10.7364 2.52246 9.4429 2.50012 8.09374C2.44918 5.05281 4.94449 2.50749 7.98668 2.49999C11.0289 2.49249 13.5001 4.96281 13.5001 7.99999C13.5012 9.38168 12.9801 10.7127 12.0414 11.7266Z" fill="white"/>
<path d="M7.99989 4.5C7.38364 4.5 6.82646 4.73094 6.43052 5.15063C6.03458 5.57031 5.83677 6.15062 5.88146 6.77344C5.97208 8 6.92239 9 7.99989 9C9.07739 9 10.0258 8 10.1183 6.77375C10.1646 6.15687 9.96833 5.58188 9.56583 5.15438C9.16833 4.7325 8.61208 4.5 7.99989 4.5Z" fill="white"/>
</svg>
